<?xml version="1.0" encoding="utf-8"?>
<svg viewBox="0 0 500 500" xmlns="http://www.w3.org/2000/svg" xmlns:bx="https://boxy-svg.com">
  <defs>
    <pattern id="pattern-0" x="0" y="0" width="25" height="25" patternUnits="userSpaceOnUse" viewBox="0 0 100 100">
      <rect x="0" y="0" width="50" height="100" style="fill: black;"/>
    </pattern>
    <radialGradient id="gradient-0" gradientUnits="userSpaceOnUse" cx="321" cy="320" r="126.827">
      <stop offset="0" style="stop-color: rgb(228, 228, 228);"/>
      <stop offset="1" style="stop-color: rgb(173, 173, 173);"/>
    </radialGradient>
  </defs>
  <path transform="matrix(-1.09872, 1.09872, -1.09872, -1.09872, 954.27948, 248.901276)" d="M 305.484 193.173 L 336.516 193.173 L 343.065 240.571 A 82.437 82.437 0 0 1 361.563 248.232 L 399.708 219.348 L 421.652 241.292 L 392.768 279.437 A 82.437 82.437 0 0 1 400.429 297.935 L 447.827 304.484 L 447.827 335.516 L 400.429 342.065 A 82.437 82.437 0 0 1 392.768 360.563 L 421.652 398.708 L 399.708 420.652 L 361.563 391.768 A 82.437 82.437 0 0 1 343.065 399.429 L 336.516 446.827 L 305.484 446.827 L 298.935 399.429 A 82.437 82.437 0 0 1 280.437 391.768 L 242.292 420.652 L 220.348 398.708 L 249.232 360.563 A 82.437 82.437 0 0 1 241.571 342.065 L 194.173 335.516 L 194.173 304.484 L 241.571 297.935 A 82.437 82.437 0 0 1 249.232 279.437 L 220.348 241.292 L 242.292 219.348 L 280.437 248.232 A 82.437 82.437 0 0 1 298.935 240.571 Z M 321 281.952 A 38.048 38.048 0 0 0 321 358.048 A 38.048 38.048 0 0 0 321 281.952" style="stroke-width: 1.302px; fill: url(#gradient-0);" bx:shape="cog 321 320 38.048 82.437 126.827 0.38 8 1@0d4b1739"/>
</svg>